<svg viewBox="0 0 105 105" xmlns="http://www.w3.org/2000/svg"><path d="M52 94c23.196 0 42-18.804 42-42S75.196 10 52 10 10 28.804 10 52s18.804 42 42 42Zm0-11c14.557 0 20-13.843 20-13.843 0-.83-8.545 1.896-20 1.896s-20-2.726-20-1.896C32 69.157 37.443 83 52 83Zm13.523-24.03c4.737-3.911 16.158-6.21 18.016-13.145 1.859-6.935-10.316-9.877-13.523-3.624.336-7.022-11.664-10.558-13.523-3.623-1.858 6.935 6.944 14.653 9.03 20.393Zm-28.094 0c2.146-5.755 10.887-13.457 9.03-20.392-1.86-6.935-13.873-3.396-13.524 3.623-3.22-6.25-15.381-3.311-13.523 3.624 1.859 6.935 13.34 9.218 18.017 13.146Zm0 0" fill="#8a2be2" fill-rule="evenodd" class="fill-000000"></path></svg>